<?xml version="1.0" encoding="UTF-8"?><svg xmlns="http://www.w3.org/2000/svg" viewBox="0 0 297.47 188.38"><defs><style>.cls-1{stroke-width:1.4px;}.cls-1,.cls-2,.cls-3,.cls-4,.cls-5{stroke:#000;stroke-miterlimit:10;}.cls-1,.cls-3,.cls-4,.cls-5{fill:none;}.cls-1,.cls-3,.cls-5{stroke-linecap:round;}.cls-6{font-family:Yadon-Regular, Yadon;font-size:46.36px;}.cls-2{fill:#ffec5f;stroke-width:9px;}.cls-7{isolation:isolate;}.cls-5{opacity:.99;stroke-width:1.3px;}</style></defs><g class="cls-7"><g id="Layer_group-2"><g><path d="M89.38,93c-1.11-3.5-2.88-6.72-5.35-9.63-3.78-4.45-8.58-7.88-14.2-10.38-2.62-1.17-5.37-2.31-8.21-2.89-4.1-.83-8.34-1.12-12.52-1.65h0c1.17,.46,2.33,.95,3.51,1.38,5.43,1.97,9.79,5.02,12.93,9.41,3.81,5.33,5.2,11.27,5.58,17.38,.24,3.83-.02,7.7-.39,11.53-.41,4.29-1.79,8.39-4.12,12.21-2.5,4.09-6.05,7.34-10.53,9.79-2.3,1.26-4.64,2.47-7.25,3.11-.26,.12-.52,.21-.8,.28-.05,.03-.1,.04-.16,.05-.02,.01-.04,.03-.07,.04-.04,.01-.07,.03-.11,.04-.02,0-.04,0-.06,.01l-.14,.02s-.01,0-.02,0c-.11,.03-.23,.04-.35,.05-.01,0-.02,0-.03,0-.03,0-.05,0-.08,0-.29,.08-.59,.15-.92,.18-1.04,.09-2.11,.24-3.16,.21,.28,.24,.39,.63,.34,.99h3.48c.41-.01,.81-.02,1.22-.04,7.96-.32,15.64-1.88,22.79-5.07,10.14-4.53,16.66-11.57,19.04-21.36,1.27-5.23,1.22-10.47-.43-15.67Z"/><path d="M39.22,5.54c2.75-1.8,5.59-3.5,8.97-3.82,1.93-.19,3.87-.34,5.8-.34,9.12-.02,18.25-.02,27.37-.02-.15-.27-.25-.58-.27-.91,0-.15,.01-.29,.05-.43-6.11,0-12.22,0-18.33,.02-5.39,.02-10.78-.03-16.15,.25-7.46,.39-14.62,2.12-21.22,5.75-5.21,2.86-9.43,6.78-12.35,11.98-2.92,5.18-4.14,10.82-4.11,16.73,.03,6.41,1.8,12.32,5.53,17.55,3.21,4.51,7.38,8.01,12.25,10.63,3.68,1.98,7.41,3.87,11.66,4.32,1.53,.16,3.08,.22,4.6,.43,.43,.06,.85,.15,1.28,.23,.02,0,.05,0,.07,0,.05,0,.11,0,.16,0,.15,.02,.29,.03,.44,.06,0,0,0,0,.01,0,.07,0,.14,0,.21,.02,1.45,.1,2.89,.32,4.29,.67,.02,0,.04,.02,.06,.03,.08,.01,.15,.03,.23,.04,.06,0,.11,0,.1,.01,.7,.06,1.39,.14,2.07,.29,.36,.08,.71,.14,1.07,.2-.24-.26-.4-.6-.46-.98-.1,0-.19-.02-.29-.02-3.42-.23-6.78-.36-9.98-1.88-3.96-1.88-7.42-4.3-10.02-7.89-2.73-3.77-4.29-8-5.14-12.54-1.29-6.88-1.35-13.76-.16-20.66,1.41-8.24,5.13-15.04,12.26-19.7Z"/><path class="cls-3" d="M62.21,71.14c-10.01-2.6-12.76-2.94-24.46-5.87"/></g><g><path d="M215.37,93.37c-1.11-3.5-2.88-6.72-5.35-9.63-3.78-4.45-8.58-7.88-14.2-10.38-2.62-1.17-5.37-2.31-8.21-2.89-4.1-.83-8.34-1.12-12.52-1.65h0c1.17,.46,2.33,.95,3.51,1.38,5.43,1.97,9.79,5.02,12.93,9.41,3.81,5.33,5.2,11.27,5.58,17.38,.24,3.83-.02,7.7-.39,11.53-.41,4.29-1.79,8.39-4.12,12.21-2.5,4.09-6.05,7.34-10.53,9.79-3.02,1.65-6.1,3.25-9.77,3.53-2.14,.16-4.29,.32-6.44,.33-.65,0-1.3,0-1.95,0,.21,.27,.37,.58,.5,.89,1.45-.03,2.9-.02,4.36-.01,.24,0,.45,.04,.65,.08h3.6c.32,0,.61,.05,.88,.13,.02,0,.04,0,.06,0,.08,0,.15-.01,.23-.01,.17-.03,.35-.04,.52-.03,7.69-.39,15.12-1.93,22.04-5.03,10.14-4.53,16.66-11.57,19.04-21.36,1.27-5.23,1.22-10.47-.43-15.67Z"/><path d="M183.91,.48h-6.94c-1.44,.04-2.88,.08-4.32,.16-7.46,.39-14.62,2.12-21.22,5.75-5.21,2.86-9.43,6.78-12.35,11.98-2.92,5.18-4.14,10.82-4.11,16.73,.03,6.41,1.8,12.32,5.53,17.55,3.21,4.51,7.38,8.01,12.25,10.63,3.68,1.98,7.41,3.87,11.66,4.32,1.53,.16,3.08,.22,4.6,.43,.43,.06,.85,.15,1.28,.23,.02,0,.05,0,.07,0,.05,0,.11,0,.16,0,.15,.02,.29,.03,.44,.06,0,0,0,0,.01,0,.07,0,.14,0,.21,.02,1.45,.1,2.89,.32,4.29,.67,.02,0,.04,.02,.06,.03,.08,.01,.15,.03,.23,.04,.06,0,.11,0,.1,.01,.7,.06,1.39,.14,2.07,.29,.36,.08,.71,.14,1.07,.2-.24-.26-.4-.6-.46-.98-.1,0-.19-.02-.29-.02-3.42-.23-6.78-.36-9.98-1.88-3.96-1.88-7.42-4.3-10.02-7.89-2.73-3.77-4.29-8-5.14-12.54-1.29-6.88-1.35-13.76-.16-20.66,1.41-8.24,5.13-15.04,12.26-19.7,2.75-1.8,5.59-3.5,8.97-3.82,1.93-.19,3.87-.34,5.8-.34,1.3,0,2.6,0,3.9,0-.07-.45-.06-.87,.03-1.26Z"/><path class="cls-4" d="M188.2,71.51c-10.01-2.6-12.76-2.94-24.46-5.87"/></g><line class="cls-1" x1="197.63" y1="1.17" x2="175.02" y2="1.21"/><path d="M145.09,26.04c-.9-3.63-2.33-7-4.42-10.06-3.73-5.46-8.78-9.21-14.74-11.76C118.94,1.23,111.59,.05,104.08,.03,93.66,0,83.24,0,72.83,0V1.38c9.54,0,19.08,0,28.62,.02,3.42,0,6.85,.08,10.07,1.64,5.82,2.82,10.55,6.81,13.58,12.71,2.59,5.03,3.65,10.5,3.88,16.09,.16,3.85-.04,7.74-.37,11.59-.38,4.42-1.52,8.68-3.53,12.65-1.88,3.72-4.45,6.86-7.92,9.12-3.12,2.03-6.41,3.6-10.12,4-.05,0-.1,.02-.16,.03,0,0,0,0,0,0-.07,.01-.14,.02-.22,.03,0,0-.01,.01-.02,.01-.2,.04-.41,.07-.62,.09,0,0-.01,0-.02,0-.01,0-.03,0-.04,0-1.03,.33-2.06,.65-3.09,.96,.51,.04,1.03,.06,1.55,.09h4.66c1.13-.24,2.27-.42,3.41-.48,2.16-.55,4.34-1.01,6.46-1.7,7.17-2.34,13.68-5.85,18.93-11.5,3.87-4.17,6.43-9.05,7.62-14.64,1.14-5.37,.9-10.72-.41-16.04Z"/><line class="cls-2" x1="77.3" y1="1.38" x2="76.75" y2="70.41"/><path class="cls-3" d="M111.92,69.92c-5.48-.05-11.48-.05-17.09,0"/><path d="M150.59,93.97c-1.11-3.45-2.88-6.61-5.35-9.48-3.78-4.38-8.58-7.75-14.2-10.22-2.62-1.15-5.37-2.28-8.21-2.84-4.1-.81-8.34-1.11-12.52-1.62h0c1.17,.46,2.33,.94,3.51,1.36,5.43,1.94,9.79,4.94,12.93,9.26,3.81,5.24,5.2,11.09,5.58,17.11,.24,3.77-.02,7.58-.39,11.34-.41,4.22-1.79,8.26-4.12,12.02-2.5,4.03-6.05,7.23-10.53,9.64-3.02,1.63-6.1,3.2-9.77,3.47-2.14,.16-4.29,.32-6.44,.32-8.74,.02-17.49,.02-26.23,.02,.15,.17,.29,.34,.4,.52,.09,.16,.16,.32,.21,.48h34.58c7.66-.39,15.05-1.91,21.94-4.94,10.14-4.46,16.66-11.39,19.04-21.02,1.27-5.15,1.22-10.31-.43-15.43Z"/><line class="cls-5" x1="173.74" y1="134.77" x2="11.28" y2="134.66"/><text class="cls-6" transform="translate(5.98 175.56) scale(1.28 1)"><tspan x="0" y="0">STAGING</tspan></text></g></g></svg>